<?xml version="1.0" encoding="UTF-8"?><svg version="1.1" id="Layer_1" xmlns="http://www.w3.org/2000/svg" xmlns:xlink="http://www.w3.org/1999/xlink" x="0px" y="0px" viewBox="0 0 1000 1000" style="enable-background:new 0 0 1000 1000;" xml:space="preserve" width="1000px" height="1000px">

<g>
	<g id="Layer_1_1_">
		<path d="M241,623.7h550c11,0,20,9,20,20l0,0c0,11-9,20-20,20H241c-11,0-20-9-20-20l0,0C221,632.6,230,623.7,241,623.7
			z" style="opacity:0.23;fill:#1C1C1C;enable-background:new    ;"/>
		<path d="M286.5,381h270c5.5,0,10,4.5,10,10v198c0,5.5-4.5,10-10,10h-270c-5.5,0-10-4.5-10-10V391
			C276.5,385.5,281,381,286.5,381z" style="fill:#B4AAC1;"/>
		<path d="M560.5,391v191.9c0,2.2-1.8,4-4,4h-270c-2.2,0-4-1.8-4-4V391c0-2.2,1.8-4,4-4h270
			C558.7,387,560.5,388.8,560.5,391z" style="fill:#D3D3D1;"/>
		<g>
			<path d="M556.5,602h-270c-7.2,0-13-5.8-13-13V391c0-7.2,5.8-13,13-13h270c7.2,0,13,5.8,13,13v198
				C569.5,596.2,563.7,602,556.5,602z M286.5,384c-3.9,0-7,3.1-7,7v198c0,3.9,3.1,7,7,7h270c3.9,0,7-3.1,7-7V391c0-3.9-3.1-7-7-7
				H286.5z" style="fill:#0C1740;"/>
		</g>
		<path d="M548.5,405.6v146c0,4.4-3.6,8-8,8h-238c-4.4,0-8-3.6-8-8v-146c0-4.4,3.6-8,8-8h238
			C544.9,397.6,548.5,401.2,548.5,405.6z" style="fill:#B4AAC1;"/>
		<path d="M544.5,405.6v146c0,2.2-1.8,4-4,4h-238c-2.2,0-4-1.8-4-4v-146c0-2.2,1.8-4,4-4h238
			C542.7,401.6,544.5,403.4,544.5,405.6z" style="fill:#0C1740;"/>
		<g style="opacity:0.63;">
			<path d="M442.3,476.6c-6.8-3.3-13.7-2-20.5-0.4v-20.5c6.8-1.6,13.7-2.9,20.5,0.4V476.6z" style="fill:#4988E2;"/>
			<path d="M442.3,500.5c-6.8-3.3-13.7-2-20.5-0.4v-20.5c6.8-1.6,13.7-2.9,20.5,0.4V500.5z" style="fill:#4988E2;"/>
			<path d="M418.4,500.9c-6.8,1.6-13.7,2.9-20.5-0.4V480c6.8,3.3,13.7,2,20.5,0.4V500.9z" style="fill:#4988E2;"/>
			<path d="M418.4,477c-6.8,1.6-13.7,2.9-20.5-0.4v-20.5c6.8,3.3,13.7,2,20.5,0.4V477z" style="fill:#4988E2;"/>
		</g>
		<path d="M440.7,599h-38.5c0,13.2-13,24.1-29.9,25.1l-14.3,0.8c-7.5,0.4-13.5,6.6-13.6,14.1h154
			c-0.1-7.6-6-13.7-13.6-14.1l-14.3-0.8C453.8,623.1,440.7,612.2,440.7,599z" style="fill:#B4AAC1;"/>
		<path d="M372.4,624.1l-14.3,0.8c-7.5,0.4-13.5,6.6-13.6,14.1h154c-0.1-7.6-6-13.7-13.6-14.1l-14.3-0.8
			c-1.9-0.1-3.8-0.4-5.7-0.7h-86.9C376.2,623.7,374.3,624,372.4,624.1z" style="fill:#D3D3D1;"/>
		<path d="M446.7,613.5c-3.7-3.9-5.8-9.1-5.9-14.5h-38.5c-0.1,5.4-2.2,10.6-5.9,14.5H446.7z" style="fill:#958BA5;"/>
		<g>
			<path d="M498.5,642h-154c-0.8,0-1.6-0.3-2.1-0.9c-0.6-0.6-0.9-1.3-0.9-2.1c0.1-9.1,7.3-16.6,16.4-17.1l14.3-0.8
				c15.2-0.9,27-10.6,27-22.1c0-1.7,1.3-3,3-3h38.5c1.7,0,3,1.3,3,3c0,11.5,11.9,21.2,27,22.1l14.3,0.8c9.1,0.4,16.3,7.9,16.4,17.1
				c0,0.8-0.3,1.6-0.9,2.1S499.3,642,498.5,642z M347.9,636h147.1c-1.3-4.5-5.4-7.9-10.3-8.1l-14.4-0.8c-17.1-1-30.7-11.7-32.5-25.1
				H405c-1.8,13.3-15.4,24.1-32.5,25.1l-14.3,0.8C353.3,628.1,349.2,631.5,347.9,636z" style="fill:#0C1740;"/>
		</g>
		<path d="M598.9,323h132c4.4,0,8,3.6,8,8v286c0,4.4-3.6,8-8,8h-132c-4.4,0-8-3.6-8-8V331
			C590.9,326.6,594.5,323,598.9,323z" style="fill:#364477;"/>
		<g>
			<path d="M730.9,628h-132c-6.1,0-11-4.9-11-11V331c0-6.1,4.9-11,11-11h132c6.1,0,11,4.9,11,11v286
				C741.9,623.1,736.9,628,730.9,628z M598.9,326c-2.8,0-5,2.2-5,5v286c0,2.8,2.2,5,5,5h132c2.8,0,5-2.2,5-5V331c0-2.8-2.2-5-5-5
				H598.9z" style="fill:#0C1740;"/>
		</g>
		<path d="M664.9,615c-35.3,0-64-28.7-64-64V334c0-0.6,0.4-1,1-1h126c0.6,0,1,0.4,1,1v217
			C728.8,586.3,700.2,615,664.9,615z" style="fill:#3E5080;"/>
		<path d="M600.9,355.5v182c0,35.9,28.7,65.1,64,65.1s64-29.2,64-65.1v-182H600.9z" style="fill:#364477;"/>
		<g>
			<path d="M664.9,616.5C664.9,616.5,664.9,616.5,664.9,616.5c-36.1,0-65.5-29.4-65.5-65.5V334c0-1.4,1.1-2.5,2.5-2.5
				h126c1.4,0,2.5,1.1,2.5,2.5v217C730.3,587.1,701,616.5,664.9,616.5z M602.4,334.5V551c0,34.4,28.1,62.5,62.5,62.5
				c34.4,0,62.5-28.1,62.5-62.5V334.5H602.4z" style="fill:#0C1740;"/>
		</g>
		<path d="M664.9,591c-35.3,0-64-28.7-64-64V334c0-0.6,0.4-1,1-1h126c0.6,0,1,0.4,1,1v193
			C728.8,562.4,700.2,591,664.9,591z" style="fill:#485D8C;"/>
		<g>
			<path d="M664.9,592.5C664.9,592.5,664.9,592.5,664.9,592.5c-36.1,0-65.5-29.4-65.5-65.5V334c0-1.4,1.1-2.5,2.5-2.5
				h126c1.4,0,2.5,1.1,2.5,2.5v193C730.3,563.1,701,592.5,664.9,592.5z M602.4,334.5V527c0,34.4,28.1,62.5,62.5,62.5
				c34.4,0,62.5-28.1,62.5-62.5V334.5H602.4z" style="fill:#0C1740;"/>
		</g>
		<rect x="608.9" y="625" width="112" height="14" style="fill:#263866;"/>
		<rect x="608.9" y="625" width="112" height="7" style="fill:#1B2F5B;"/>
		<g>
			<path d="M720.9,642h-112c-1.7,0-3-1.3-3-3v-14c0-1.7,1.3-3,3-3h112c1.7,0,3,1.3,3,3v14
				C723.9,640.7,722.5,642,720.9,642z M611.9,636h106v-8h-106V636z" style="fill:#0C1740;"/>
		</g>
		<path d="M613.4,341.8h103c2.5,0,4.5,2,4.5,4.5v16.5c0,2.5-2,4.5-4.5,4.5h-103c-2.5,0-4.5-2-4.5-4.5v-16.5
			C608.9,343.8,610.9,341.8,613.4,341.8z" style="fill:#364477;"/>
		<g>
			<path d="M716.4,368.3h-103c-3,0-5.5-2.5-5.5-5.5v-16.5c0-3,2.5-5.5,5.5-5.5h103c3,0,5.5,2.5,5.5,5.5v16.5
				C721.9,365.8,719.4,368.3,716.4,368.3z M613.4,342.8c-1.9,0-3.5,1.6-3.5,3.5v16.5c0,1.9,1.6,3.5,3.5,3.5h103
				c1.9,0,3.5-1.6,3.5-3.5v-16.5c0-1.9-1.6-3.5-3.5-3.5H613.4z" style="fill:#0C1740;"/>
		</g>
		<path d="M646.7,383.6h69.6c2.5,0,4.5,2,4.5,4.5v11.4c0,2.5-2,4.5-4.5,4.5h-69.6c-2.5,0-4.5-2-4.5-4.5v-11.4
			C642.2,385.6,644.3,383.6,646.7,383.6z" style="fill:#364477;"/>
		<g>
			<path d="M716.4,405h-69.6c-3,0-5.5-2.5-5.5-5.5v-11.4c0-3,2.5-5.5,5.5-5.5h69.6c3,0,5.5,2.5,5.5,5.5v11.4
				C721.9,402.5,719.4,405,716.4,405z M646.7,384.6c-1.9,0-3.5,1.6-3.5,3.5v11.4c0,1.9,1.6,3.5,3.5,3.5h69.6c1.9,0,3.5-1.6,3.5-3.5
				v-11.4c0-1.9-1.6-3.5-3.5-3.5H646.7z" style="fill:#0C1740;"/>
		</g>
		<circle cx="666.7" cy="537.6" r="17.8" style="fill:#5873A3;"/>
		<path d="M610.7,432.5h108.4c1,0,1.8,0.8,1.8,1.8v24.4c0,1-0.8,1.8-1.8,1.8H610.7c-1,0-1.8-0.8-1.8-1.8v-24.4
			C608.9,433.3,609.7,432.5,610.7,432.5z" style="fill:#364477;"/>
		<circle cx="664.9" cy="488.6" r="10.3" style="fill:#0C1740;"/>
		<circle cx="664.9" cy="488.6" r="9.5" style="fill:#1F2F63;"/>
		<path d="M688.3,443h18.8c0.6,0,1.1,0.5,1.1,1.1v4.8c0,0.6-0.5,1.1-1.1,1.1h-18.8c-0.6,0-1.1-0.5-1.1-1.1v-4.8
			C687.2,443.5,687.7,443,688.3,443z" style="fill:#0C1740;"/>
		<path d="M707.2,444.1v2.3c0,0.1,0,0.1-0.1,0.1h-18.8c-0.1,0-0.1,0-0.1-0.1v-2.3c0-0.1,0-0.1,0.1-0.1L707.2,444.1
			C707.2,444,707.2,444.1,707.2,444.1z" style="fill:#485D8C;"/>
		<path d="M662.6,443h18.8c0.6,0,1.1,0.5,1.1,1.1v4.8c0,0.6-0.5,1.1-1.1,1.1h-18.8c-0.6,0-1.1-0.5-1.1-1.1v-4.8
			C661.5,443.5,662,443,662.6,443z" style="fill:#0C1740;"/>
		<path d="M681.5,444.1v2.3c0,0.1,0,0.1-0.1,0.1h-18.8c-0.1,0-0.1,0-0.1-0.1v-2.3c0-0.1,0-0.1,0.1-0.1L681.5,444.1
			C681.4,444,681.5,444.1,681.5,444.1z" style="fill:#485D8C;"/>
		<circle cx="530.1" cy="572.8" r="6" style="opacity:0.51;fill:#0C1740;enable-background:new    ;"/>
		<circle cx="530.1" cy="572.8" r="5.6" style="fill:#FFFFFF;"/>
		<circle cx="516.2" cy="572.8" r="3" style="opacity:0.51;fill:#0C1740;enable-background:new    ;"/>
		<circle cx="516.2" cy="572.8" r="2.8" style="fill:#FFFFFF;"/>
		<g style="opacity:0.49;">
			
				<rect x="418" y="570.5" transform="matrix(0.7071 -0.7071 0.7071 0.7071 -284.6084 465.385)" width="2.9" height="11.5" style="fill:#0C1740;"/>
			
				<rect x="416.6" y="568.7" transform="matrix(0.7071 -0.7071 0.7071 0.7071 -280.2994 463.6002)" width="5.7" height="2.9" style="fill:#0C1740;"/>
			
				<rect x="422.7" y="574.8" transform="matrix(0.7071 -0.7071 0.7071 0.7071 -282.824 469.6934)" width="5.7" height="2.9" style="fill:#0C1740;"/>
			
				<rect x="419.6" y="571.8" transform="matrix(0.7071 -0.7071 0.7071 0.7071 -281.5619 466.6463)" width="5.7" height="2.9" style="fill:#0C1740;"/>
		</g>
		
			<rect x="661.9" y="532.4" transform="matrix(0.7071 -0.7071 0.7071 0.7071 -187.7158 627.7139)" width="4" height="16" style="fill:#485D8C;"/>
		<rect x="659.9" y="530" transform="matrix(0.7071 -0.7071 0.7071 0.7071 -181.7161 625.2289)" width="8" height="4" style="fill:#485D8C;"/>
		
			<rect x="668.3" y="538.5" transform="matrix(0.7071 -0.7071 0.7071 0.7071 -185.2308 633.7136)" width="8" height="4" style="fill:#485D8C;"/>
		
			<rect x="664.1" y="534.2" transform="matrix(0.7071 -0.7071 0.7071 0.7071 -183.4732 629.4709)" width="8" height="4" style="fill:#485D8C;"/>
		<path d="M649,390h63.8c0.7,0,1.2,0.6,1.2,1.2v4.3c0,0.7-0.6,1.2-1.2,1.2H649c-0.7,0-1.2-0.6-1.2-1.2v-4.3
			C647.7,390.5,648.3,390,649,390z" style="fill:#0C1740;"/>
		<path d="M686.4,387.9h14.8c3,0,5.5,2.5,5.5,5.5l0,0c0,3-2.5,5.5-5.5,5.5h-14.8c-3,0-5.5-2.5-5.5-5.5l0,0
			C680.9,390.4,683.4,387.9,686.4,387.9z" style="fill:#0C1740;"/>
		<path d="M712.1,393.4L712.1,393.4c0,0.8-0.6,1.4-1.4,1.4h-59.5c-0.8,0-1.4-0.6-1.4-1.4l0,0c0-0.8,0.6-1.4,1.4-1.4
			h59.5C711.4,392,712.1,392.6,712.1,393.4z" style="fill:#091438;"/>
		<circle cx="650.6" cy="446.5" r="3.5" style="fill:#0C1740;"/>
		<circle cx="636.4" cy="446.5" r="3.5" style="fill:#0C1740;"/>
		<g style="opacity:0.58;enable-background:new    ;">
			<path d="M650.6,451c-2.5,0-4.5-2-4.5-4.5s2-4.5,4.5-4.5s4.5,2,4.5,4.5S653.1,451,650.6,451z M650.6,444
				c-1.4,0-2.5,1.1-2.5,2.5s1.1,2.5,2.5,2.5s2.5-1.1,2.5-2.5S652,444,650.6,444z" style="fill:#1AC17D;"/>
		</g>
		<g style="opacity:0.58;enable-background:new    ;">
			<path d="M636.4,451c-2.5,0-4.5-2-4.5-4.5s2-4.5,4.5-4.5s4.5,2,4.5,4.5S638.9,451,636.4,451z M636.4,444
				c-1.4,0-2.5,1.1-2.5,2.5s1.1,2.5,2.5,2.5s2.5-1.1,2.5-2.5S637.8,444,636.4,444z" style="fill:#F9232E;"/>
		</g>
		<g>
			<path d="M664.9,496.1c-0.2,0-0.4,0-0.6,0c-2-0.2-3.8-1.1-5.1-2.6c-1.3-1.5-1.9-3.5-1.7-5.4c0.2-2,1.1-3.8,2.6-5.1
				c0.4-0.4,1.1-0.3,1.4,0.1c0.4,0.4,0.3,1.1-0.1,1.4c-1.1,0.9-1.8,2.3-1.9,3.7c-0.1,1.5,0.3,2.9,1.3,4c0.9,1.1,2.3,1.8,3.7,1.9
				c1.5,0.1,2.9-0.3,4-1.3c1.1-0.9,1.8-2.3,1.9-3.7c0.1-1.5-0.3-2.9-1.3-4c-0.2-0.2-0.4-0.4-0.6-0.6c-0.4-0.4-0.5-1-0.1-1.4
				c0.4-0.4,1-0.5,1.4-0.1c0.3,0.3,0.6,0.6,0.9,0.9c1.3,1.5,1.9,3.5,1.7,5.4c-0.2,2-1.1,3.8-2.6,5.1
				C668.3,495.4,666.7,496.1,664.9,496.1z" style="fill:#0C1740;"/>
		</g>
		<g>
			<path d="M664.9,489.6c-0.6,0-1-0.4-1-1V481c0-0.6,0.4-1,1-1s1,0.4,1,1v7.6C665.9,489.1,665.4,489.6,664.9,489.6z" style="fill:#0C1740;"/>
		</g>
		<path d="M614.4,346h101.2c0.8,0,1.4,0.6,1.4,1.4v9.5c0,0.8-0.6,1.4-1.4,1.4H614.4c-0.8,0-1.4-0.6-1.4-1.4v-9.5
			C613,346.6,613.6,346,614.4,346z" style="fill:#0C1740;"/>
		<path d="M708.8,361.4h6.6c0.4,0,0.8,0.4,0.8,0.8v1.1c0,0.4-0.4,0.8-0.8,0.8h-6.6c-0.4,0-0.8-0.4-0.8-0.8v-1.1
			C707.9,361.8,708.3,361.4,708.8,361.4z" style="fill:#0C1740;"/>
		<path d="M703.5,361.4L703.5,361.4c0.8,0,1.4,0.6,1.4,1.4l0,0c0,0.8-0.6,1.4-1.4,1.4l0,0c-0.8,0-1.4-0.6-1.4-1.4l0,0
			C702.1,362.1,702.8,361.4,703.5,361.4z" style="fill:#2AD142;"/>
		<circle cx="682.1" cy="479.7" r="2.3" style="fill:#0C1740;"/>
		<circle cx="682.1" cy="479.7" r="1.7" style="fill:#1F2F63;"/>
		<path d="M484.2,621.7h93.4c2.9,0,5.3,2.4,5.3,5.3l0,0v8.4l0,0H479l0,0V627C479,624,481.3,621.7,484.2,621.7
			L484.2,621.7z" style="fill:#B7B7B7;"/>
		<path d="M398.4,621.7h9.4c2.9,0,5.3,2.4,5.3,5.3l0,0v8.4l0,0h-20l0,0V627C393.1,624,395.5,621.7,398.4,621.7
			L398.4,621.7z" style="fill:#B7B7B7;"/>
		<path d="M426.3,621.7h9.4c2.9,0,5.3,2.4,5.3,5.3l0,0v8.4l0,0h-20l0,0V627C421,624,423.4,621.7,426.3,621.7
			L426.3,621.7z" style="fill:#B7B7B7;"/>
		<path d="M596.2,621.7h9.4c2.9,0,5.3,2.4,5.3,5.3l0,0v8.4l0,0h-20l0,0V627C590.9,624,593.3,621.7,596.2,621.7
			L596.2,621.7z" style="fill:#B7B7B7;"/>
		<path d="M625.1,621.7h9.4c2.9,0,5.3,2.4,5.3,5.3l0,0v8.4l0,0h-20l0,0V627C619.8,624,622.2,621.7,625.1,621.7
			L625.1,621.7z" style="fill:#B7B7B7;"/>
		<path d="M653,621.7h9.4c2.9,0,5.3,2.4,5.3,5.3l0,0v8.4l0,0h-20l0,0V627C647.7,624,650.1,621.7,653,621.7L653,621.7z" style="fill:#B7B7B7;"/>
		<path d="M387,635.4h287.4c4.6,0,8.3,3.7,8.3,8.3v0c0,4.6-3.7,8.3-8.3,8.3H387c-4.6,0-8.3-3.7-8.3-8.3v0
			C378.7,639.1,382.4,635.4,387,635.4z" style="fill:#D3D3D1;"/>
		<g>
			<path d="M583,638.4H479c-1.7,0-3-1.3-3-3V627c0-4.6,3.7-8.3,8.3-8.3h93.4c4.6,0,8.3,3.7,8.3,8.3v8.4
				C586,637,584.6,638.4,583,638.4z M482,632.4h98V627c0-1.3-1-2.3-2.3-2.3h-93.4c-1.3,0-2.3,1-2.3,2.3V632.4z" style="fill:#0C1740;"/>
		</g>
		<g>
			<path d="M413.1,638.4h-20c-1.7,0-3-1.3-3-3V627c0-4.6,3.7-8.3,8.3-8.3h9.4c4.6,0,8.3,3.7,8.3,8.3v8.4
				C416.1,637,414.8,638.4,413.1,638.4z M396.1,632.4h14V627c0-1.3-1-2.3-2.3-2.3h-9.4c-1.3,0-2.3,1-2.3,2.3V632.4z" style="fill:#0C1740;"/>
		</g>
		<g>
			<path d="M441,638.4h-20c-1.7,0-3-1.3-3-3V627c0-4.6,3.7-8.3,8.3-8.3h9.4c4.6,0,8.3,3.7,8.3,8.3v8.4
				C444,637,442.7,638.4,441,638.4z M424,632.4h14V627c0-1.3-1-2.3-2.3-2.3h-9.4c-1.3,0-2.3,1-2.3,2.3V632.4z" style="fill:#0C1740;"/>
		</g>
		<path d="M455.4,621.7h9.4c2.9,0,5.3,2.4,5.3,5.3l0,0v8.4l0,0h-20l0,0V627C450.1,624,452.4,621.7,455.4,621.7z" style="fill:#B7B7B7;"/>
		<g>
			<path d="M470.1,638.4h-20c-1.7,0-3-1.3-3-3V627c0-4.6,3.7-8.3,8.3-8.3c0,0,0,0,0,0h9.4c4.6,0,8.3,3.7,8.3,8.3v8.4
				C473.1,637,471.7,638.4,470.1,638.4z M453.1,632.4h14V627c0-1.3-1-2.3-2.3-2.3h-9.4c-1.3,0-2.3,1-2.3,2.3V632.4z" style="fill:#0C1740;"/>
		</g>
		<g>
			<path d="M610.9,638.4h-20c-1.7,0-3-1.3-3-3V627c0-4.6,3.7-8.3,8.3-8.3h9.4c4.6,0,8.3,3.7,8.3,8.3v8.4
				C613.9,637,612.5,638.4,610.9,638.4z M593.9,632.4h14V627c0-1.3-1-2.3-2.3-2.3h-9.4c-1.3,0-2.3,1-2.3,2.3V632.4z" style="fill:#0C1740;"/>
		</g>
		<g>
			<path d="M639.8,638.4h-20c-1.7,0-3-1.3-3-3V627c0-4.6,3.7-8.3,8.3-8.3h9.4c4.6,0,8.3,3.7,8.3,8.3v8.4
				C642.8,637,641.5,638.4,639.8,638.4z M622.8,632.4h14V627c0-1.3-1-2.3-2.3-2.3h-9.4c-1.3,0-2.3,1-2.3,2.3V632.4z" style="fill:#0C1740;"/>
		</g>
		<g>
			<path d="M667.7,638.4h-20c-1.7,0-3-1.3-3-3V627c0-4.6,3.7-8.3,8.3-8.3h9.4c4.6,0,8.3,3.7,8.3,8.3v8.4
				C670.7,637,669.4,638.4,667.7,638.4z M650.7,632.4h14V627c0-1.3-1-2.3-2.3-2.3H653c-1.3,0-2.3,1-2.3,2.3V632.4z" style="fill:#0C1740;"/>
		</g>
		<g>
			<path d="M674.5,654.9H387c-6.2,0-11.3-5.1-11.3-11.3s5.1-11.3,11.3-11.3h287.5c6.2,0,11.3,5.1,11.3,11.3
				S680.7,654.9,674.5,654.9z M387,638.4c-2.9,0-5.3,2.4-5.3,5.3c0,2.9,2.4,5.3,5.3,5.3h287.5c2.9,0,5.3-2.4,5.3-5.3
				c0-2.9-2.4-5.3-5.3-5.3H387z" style="fill:#0C1740;"/>
		</g>
		<path d="M696.5,651.9c0-12.1,9.8-22,22-22s22,9.8,22,22H696.5z" style="fill:#D3D3D1;"/>
		<g>
			<path d="M740.4,654.9h-43.9c-1.7,0-3-1.3-3-3c0-13.8,11.2-24.9,24.9-24.9c13.8,0,25,11.2,25,24.9
				C743.4,653.6,742.1,654.9,740.4,654.9z M699.8,648.9h37.4c-1.4-9-9.3-15.9-18.7-15.9S701.2,639.9,699.8,648.9z" style="fill:#0C1740;"/>
		</g>
		<g>
			<path d="M718.5,641.7c-1.7,0-3-1.3-3-3v-6.6c0-1.7,1.3-3,3-3s3,1.3,3,3v6.6C721.5,640.4,720.1,641.7,718.5,641.7z" style="fill:#0C1740;"/>
		</g>
		<polygon points="377.7,555.6 456.1,401.6 418.3,401.6 339.9,555.6 		" style="opacity:0.72;fill:#192859;enable-background:new    ;"/>
		<polygon points="424.6,555.6 503.1,401.6 484.2,401.6 405.8,555.6 		" style="opacity:0.72;fill:#192859;enable-background:new    ;"/>
		<path d="M620.7,476c-1.4-0.5-2.9-0.6-4.3-0.1v-4.3c1.4-0.5,2.9-0.5,4.3,0.1V476z" style="fill:#67C18B;"/>
		<path d="M620.7,481c-1.4-0.5-2.9-0.6-4.3-0.1v-4.3c1.4-0.5,2.9-0.5,4.3,0.1V481z" style="fill:#E5E56A;"/>
		<path d="M615.6,481.1c-1.4,0.5-2.9,0.5-4.3-0.1v-4.3c1.4,0.5,2.9,0.6,4.3,0.1V481.1z" style="fill:#4988E2;"/>
		<path d="M615.6,476.1c-1.4,0.5-2.9,0.5-4.3-0.1v-4.3c1.4,0.5,2.9,0.6,4.3,0.1V476.1z" style="fill:#E87060;"/>
		<g style="opacity:0.28;enable-background:new    ;">
			<path d="M635.6,475.5h-11.9c-0.6,0-1-0.4-1-1s0.4-1,1-1h11.9c0.6,0,1,0.4,1,1S636.1,475.5,635.6,475.5z" style="fill:#0C1740;"/>
		</g>
		<g style="opacity:0.28;enable-background:new    ;">
			<path d="M632.9,479.1h-9.2c-0.6,0-1-0.4-1-1s0.4-1,1-1h9.2c0.6,0,1,0.4,1,1S633.4,479.1,632.9,479.1z" style="fill:#0C1740;"/>
		</g>
	</g>
</g>
</svg>